<?xml version="1.0" encoding="UTF-8" standalone="no"?>
<!-- Created with Inkscape (http://www.inkscape.org/) -->

<svg
   xmlns:dc="http://purl.org/dc/elements/1.1/"
   xmlns:cc="http://creativecommons.org/ns#"
   xmlns:rdf="http://www.w3.org/1999/02/22-rdf-syntax-ns#"
   xmlns:svg="http://www.w3.org/2000/svg"
   xmlns="http://www.w3.org/2000/svg"
   xmlns:sodipodi="http://sodipodi.sourceforge.net/DTD/sodipodi-0.dtd"
   xmlns:inkscape="http://www.inkscape.org/namespaces/inkscape"
   width="1000"
   height="1046.3579"
   viewBox="0 0 100 104.6358"
   version="1.1"
   id="svg8"
   inkscape:version="0.92.3 (2405546, 2018-03-11)"
   sodipodi:docname="8.svg">
  <defs
     id="defs2">
    <pattern
       y="0"
       x="0"
       height="6"
       width="6"
       patternUnits="userSpaceOnUse"
       id="EMFhbasepattern" />
  </defs>
  <sodipodi:namedview
     id="base"
     pagecolor="#ffffff"
     bordercolor="#666666"
     borderopacity="1.0"
     inkscape:pageopacity="0.0"
     inkscape:pageshadow="2"
     inkscape:zoom="0.30656934"
     inkscape:cx="541.60288"
     inkscape:cy="-171.49172"
     inkscape:document-units="px"
     inkscape:current-layer="layer1"
     showgrid="false"
     units="px"
     fit-margin-top="0"
     fit-margin-left="0"
     fit-margin-right="0"
     fit-margin-bottom="0" />
  <metadata
     id="metadata5">
    <rdf:RDF>
      <cc:Work
         rdf:about="">
        <dc:format>image/svg+xml</dc:format>
        <dc:type
           rdf:resource="http://purl.org/dc/dcmitype/StillImage" />
        <dc:title></dc:title>
      </cc:Work>
    </rdf:RDF>
  </metadata>
  <g
     inkscape:label="Layer 1"
     inkscape:groupmode="layer"
     id="layer1"
     transform="translate(-50.099237,180.35205)">
    <path
       id="path62"
       d="m 134.20525,-91.61033 -34.10597,-34.10597 v 48.013276 c 12.58279,0 24.83446,-4.635755 34.10597,-13.907306 z"
       style="fill:#3a73c2;fill-opacity:1;fill-rule:nonzero;stroke:none;stroke-width:4.13910389"
       inkscape:connector-curvature="0" />
    <path
       id="path64"
       d="m 124.93374,-169.09377 -1.65564,2.98015 c 13.90726,7.94704 23.50994,23.17882 23.50994,40.39736 0,25.49672 -20.86096,46.357636 -46.68876,46.357636 -25.496672,0 -46.357632,-20.860916 -46.357632,-46.357636 v 0 h -3.642411 v 0 c 0,27.483447 22.516559,50.000006 50.000003,50.000006 27.81457,0 50,-22.516559 50,-50.000006 0,-18.54302 -9.93377,-34.76822 -25.16554,-43.37747 z"
       style="fill:#191515;fill-opacity:1;fill-rule:nonzero;stroke:none;stroke-width:4.13910389"
       inkscape:connector-curvature="0" />
    <path
       id="path66"
       d="m 124.93374,-160.15339 -1.65564,3.31128 c 9.27151,6.95365 15.5629,18.21193 15.5629,31.12581 0,21.19205 -17.21855,38.741725 -38.74172,38.741725 -21.192046,0 -38.741722,-17.549675 -38.741722,-38.741725 v 0 h -3.642411 v 0 c 0,23.17882 19.205276,42.053008 42.384093,42.053008 23.50994,0 42.38413,-18.874188 42.38413,-42.053008 0,-14.23839 -6.95365,-26.82118 -17.54967,-34.43709 z"
       style="fill:#191515;fill-opacity:1;fill-rule:nonzero;stroke:none;stroke-width:4.13910389"
       inkscape:connector-curvature="0" />
    <path
       id="path68"
       d="m 100.76154,-165.78253 v 0 c 0,-3.64241 -1.986773,-6.29136 -4.30463,-6.29136 -2.649026,0 -4.304626,2.3179 -4.304626,6.29136 v 0 c 0,3.97354 1.655641,6.62252 4.304626,6.62252 2.649027,0 4.30463,-2.64902 4.30463,-6.62252 z m -17.880808,0 v 0 c 0,-7.61587 4.966884,-14.56952 13.576178,-14.56952 8.60925,0 13.57614,6.95365 13.57614,14.56952 v 0 c 0,7.94704 -5.29801,14.90069 -13.57614,14.90069 -8.609294,0 -13.576178,-6.95365 -13.576178,-14.90069 z"
       style="fill:#191515;fill-opacity:1;fill-rule:nonzero;stroke:none;stroke-width:4.13910389"
       inkscape:connector-curvature="0" />
    <path
       id="path70"
       d="m 112.01982,-161.14674 1.32451,-2.31789 c 1.32451,0.99338 2.98015,1.65564 3.97354,1.65564 0.99338,0 1.65564,-0.33113 1.65564,-0.99339 v 0 c 0,-0.99338 -1.32451,-0.99338 -2.64903,-1.65564 -1.65564,-0.33113 -3.64241,-1.32451 -3.64241,-3.64241 v 0 c 0,-2.64903 1.98677,-3.97354 4.30463,-3.97354 1.65564,0 3.31128,0.66226 4.96688,1.32451 l -1.65564,2.64903 c -0.99338,-0.66226 -2.3179,-1.32451 -3.31128,-1.32451 -0.66226,0 -1.32451,0.33112 -1.32451,0.99338 v 0 c 0,0.66226 1.32451,0.99339 2.64902,1.32451 1.65564,0.66226 3.64241,1.65565 3.64241,3.97354 v 0 c 0,2.64903 -1.98677,3.97354 -4.63575,3.97354 -1.65564,0 -3.64241,-0.66225 -5.29801,-1.98677 z"
       style="fill:#191515;fill-opacity:1;fill-rule:nonzero;stroke:none;stroke-width:4.13910389"
       inkscape:connector-curvature="0" />
    <path
       id="path72"
       d="m 71.953581,-171.08054 v 0 c 0,-1.65565 -0.993385,-2.64903 -2.649026,-2.64903 -1.98677,0 -2.980155,0.99338 -2.980155,2.64903 v 0 c 0,1.32451 0.993385,2.64902 2.980155,2.64902 1.655641,0 2.649026,-1.32451 2.649026,-2.64902 z m 0.331128,10.59602 v 0 c 0,-1.65564 -1.324513,-2.64903 -2.980154,-2.64903 -1.98677,0 -3.311283,0.99339 -3.311283,2.64903 v 0 c 0,1.32451 0.993384,2.98015 3.311283,2.98015 1.986769,0 2.980154,-1.65564 2.980154,-2.98015 m -15.231778,0.99338 v 0 c 0,-3.31128 1.98677,-5.62914 4.966884,-6.62252 -2.317898,-1.32451 -4.304627,-2.98016 -4.304627,-6.29136 v 0 c 0,-4.63579 4.635755,-7.94703 11.589408,-7.94703 6.622483,0 11.25828,3.31128 11.25828,7.94703 v 0 c 0,3.31129 -1.98677,4.96689 -4.304668,6.29136 2.980154,0.99338 5.298011,2.98015 5.298011,6.62252 v 0 c 0,4.96689 -5.298011,8.27817 -12.251623,8.27817 -7.284781,0 -12.251665,-3.31128 -12.251665,-8.27817 z"
       style="fill:#191515;fill-opacity:1;fill-rule:nonzero;stroke:none;stroke-width:4.13910389"
       inkscape:connector-curvature="0" />
    <path
       id="path74"
       d="m 50.099278,-143.26597 h 3.642412 v 1.98677 c 0.662256,-0.99339 1.655641,-1.98677 3.642411,-1.98677 1.655642,0 2.980155,0.66225 3.311283,1.98677 1.324513,-1.32452 2.649027,-1.98677 4.304627,-1.98677 2.649026,0 4.304668,1.32451 4.304668,4.63579 v 7.947 h -3.642412 v -6.95365 c 0,-1.65564 -0.662256,-2.64903 -1.986769,-2.64903 -1.324514,0 -2.317899,0.99339 -2.317899,2.64903 v 6.95365 h -3.642411 v -6.95365 c 0,-1.65564 -0.662257,-2.64903 -1.98677,-2.64903 -1.324513,0 -1.98677,0.99339 -1.98677,2.64903 v 6.95365 h -3.642411 z"
       style="fill:#191515;fill-opacity:1;fill-rule:nonzero;stroke:none;stroke-width:4.13910389"
       inkscape:connector-curvature="0" />
    <path
       id="path76"
       d="m 81.887347,-136.97458 v 0 c 0,-1.65564 -1.324513,-3.31128 -3.311283,-3.31128 -1.986769,0 -3.311283,1.65564 -3.311283,3.31128 v 0 c 0,1.98677 1.324514,3.64241 3.311283,3.64241 1.98677,0 3.311283,-1.65564 3.311283,-3.64241 z m -10.264894,0 v 0 c 0,-3.64241 2.980155,-6.29139 6.953653,-6.29139 3.973539,0 6.622525,2.64902 6.622525,6.29139 v 0 c 0,3.64241 -2.649027,6.62253 -6.622525,6.62253 -3.97354,0 -6.953653,-2.98016 -6.953653,-6.62253 z"
       style="fill:#191515;fill-opacity:1;fill-rule:nonzero;stroke:none;stroke-width:4.13910389"
       inkscape:connector-curvature="0" />
    <path
       id="path78"
       d="m 86.192015,-143.26597 h 3.642412 l 2.980155,8.60929 2.649026,-8.60929 h 3.642411 l -4.635754,12.58279 h -3.311284 z"
       style="fill:#191515;fill-opacity:1;fill-rule:nonzero;stroke:none;stroke-width:4.13910389"
       inkscape:connector-curvature="0" />
    <path
       id="path80"
       d="m 101.42379,-143.26597 h 3.31129 v 12.58279 h -3.31129 z m -0.33112,-4.30463 h 3.97353 v 2.98015 h -3.97353 z"
       style="fill:#191515;fill-opacity:1;fill-rule:nonzero;stroke:none;stroke-width:4.13910389"
       inkscape:connector-curvature="0" />
    <path
       id="path82"
       d="m 116.32444,-137.96796 c 0,-1.32451 -0.99338,-2.64903 -2.64902,-2.64903 -1.32452,0 -2.3179,0.99339 -2.64903,2.64903 z m -8.60925,0.99338 v 0 c 0,-3.31128 2.3179,-6.29139 5.96027,-6.29139 4.30462,0 6.29139,2.98015 6.29139,6.62252 0,0.33113 0,0.66226 0,0.99339 h -8.94042 c 0.33113,1.65564 1.65564,2.31789 2.98016,2.31789 1.32451,0 2.31789,-0.33112 3.31128,-0.99338 l 1.98677,1.65564 c -1.32451,1.32451 -2.98016,2.3179 -5.29801,2.3179 -3.64241,0 -6.2914,-2.64903 -6.2914,-6.62253 z"
       style="fill:#191515;fill-opacity:1;fill-rule:nonzero;stroke:none;stroke-width:4.13910389"
       inkscape:connector-curvature="0" />
    <path
       id="path84"
       d="m 121.29133,-132.33882 1.65564,-2.3179 c 1.32451,0.99338 2.64902,1.65564 3.97354,1.65564 0.99338,0 1.32451,-0.66226 1.32451,-0.99338 v 0 c 0,-0.99339 -0.99338,-0.99339 -2.3179,-1.65564 -1.98677,-0.33113 -3.97354,-1.32452 -3.97354,-3.64242 v 0 c 0,-2.64902 2.3179,-3.97354 4.63576,-3.97354 1.65564,0 3.31128,0.33113 4.63579,1.32452 l -1.32451,2.64902 c -1.32451,-0.99338 -2.3179,-1.32451 -3.31128,-1.32451 -0.99339,0 -1.32452,0.33113 -1.32452,0.99339 v 0 c 0,0.66225 1.32452,0.99338 2.64903,1.32451 1.65564,0.66226 3.64241,1.65564 3.64241,3.97354 v 0 c 0,2.64902 -1.98677,3.97354 -4.63575,3.97354 -1.98677,0 -3.97354,-0.66226 -5.62914,-1.98677 z"
       style="fill:#191515;fill-opacity:1;fill-rule:nonzero;stroke:none;stroke-width:4.13910389"
       inkscape:connector-curvature="0" />
  </g>
</svg>
