<?xml version="1.0" encoding="UTF-8" standalone="no"?>
<!-- Created with Inkscape (http://www.inkscape.org/) -->

<svg
   xmlns:dc="http://purl.org/dc/elements/1.1/"
   xmlns:cc="http://creativecommons.org/ns#"
   xmlns:rdf="http://www.w3.org/1999/02/22-rdf-syntax-ns#"
   xmlns:svg="http://www.w3.org/2000/svg"
   xmlns="http://www.w3.org/2000/svg"
   xmlns:sodipodi="http://sodipodi.sourceforge.net/DTD/sodipodi-0.dtd"
   xmlns:inkscape="http://www.inkscape.org/namespaces/inkscape"
   width="1000"
   height="1044.3387"
   viewBox="0 0 100 104.43388"
   version="1.1"
   id="svg8"
   inkscape:version="0.92.3 (2405546, 2018-03-11)"
   sodipodi:docname="9.svg">
  <defs
     id="defs2">
    <pattern
       y="0"
       x="0"
       height="6"
       width="6"
       patternUnits="userSpaceOnUse"
       id="EMFhbasepattern" />
  </defs>
  <sodipodi:namedview
     id="base"
     pagecolor="#ffffff"
     bordercolor="#666666"
     borderopacity="1.0"
     inkscape:pageopacity="0.0"
     inkscape:pageshadow="2"
     inkscape:zoom="0.30656934"
     inkscape:cx="517.81633"
     inkscape:cy="-253.45632"
     inkscape:document-units="px"
     inkscape:current-layer="layer1"
     showgrid="false"
     units="px"
     fit-margin-top="0"
     fit-margin-left="0"
     fit-margin-right="0"
     fit-margin-bottom="0" />
  <metadata
     id="metadata5">
    <rdf:RDF>
      <cc:Work
         rdf:about="">
        <dc:format>image/svg+xml</dc:format>
        <dc:type
           rdf:resource="http://purl.org/dc/dcmitype/StillImage" />
        <dc:title></dc:title>
      </cc:Work>
    </rdf:RDF>
  </metadata>
  <g
     inkscape:label="Layer 1"
     inkscape:groupmode="layer"
     id="layer1"
     transform="translate(-52.477892,188.3466)">
    <g
       id="g33204"
       transform="matrix(5.5121934,0,0,-5.5121934,68.393771,-99.808506)">
      <path
         d="M 0,0 6.186,6.186 V -2.562 C 3.947,-2.562 1.708,-1.708 0,0"
         style="fill:#f0392f;fill-opacity:1;fill-rule:nonzero;stroke:none"
         id="path33206"
         inkscape:connector-curvature="0" />
    </g>
    <g
       id="g33208"
       transform="matrix(5.5121934,0,0,-5.5121934,127.32576,-177.26171)">
      <path
         d="m 0,0 -0.304,-0.569 c 2.522,-1.458 4.225,-4.18 4.225,-7.297 0,-4.646 -3.781,-8.426 -8.427,-8.426 -4.646,0 -8.426,3.78 -8.426,8.426 v 0.003 h -0.643 v -0.003 c 0,-5 4.068,-9.069 9.069,-9.069 5.001,0 9.069,4.069 9.069,9.069 0,3.362 -1.839,6.3 -4.563,7.866"
         style="fill:#191515;fill-opacity:1;fill-rule:nonzero;stroke:none"
         id="path33210"
         inkscape:connector-curvature="0" />
    </g>
    <g
       id="g33212"
       transform="matrix(5.5121934,0,0,-5.5121934,127.22046,-168.10871)">
      <path
         d="m 0,0 -0.31,-0.579 c 1.719,-1.279 2.837,-3.323 2.837,-5.626 0,-3.868 -3.146,-7.014 -7.014,-7.014 -3.867,0 -7.014,3.146 -7.014,7.014 v 0.003 h -0.651 c 0,-0.001 0,-0.002 0,-0.003 0,-4.227 3.439,-7.665 7.665,-7.665 4.227,0 7.665,3.438 7.665,7.665 C 3.178,-3.654 1.923,-1.394 0,0"
         style="fill:#191515;fill-opacity:1;fill-rule:nonzero;stroke:none"
         id="path33214"
         inkscape:connector-curvature="0" />
    </g>
    <g
       id="g33216"
       transform="matrix(5.5121934,0,0,-5.5121934,114.23317,-169.06866)">
      <path
         d="M 0,0 0.275,0.423 C 0.52,0.245 0.778,0.152 0.99,0.152 c 0.186,0 0.27,0.068 0.27,0.169 V 0.33 C 1.26,0.469 1.04,0.516 0.791,0.592 0.474,0.685 0.114,0.833 0.114,1.273 V 1.281 C 0.114,1.742 0.486,2 0.943,2 1.231,2 1.544,1.903 1.789,1.738 L 1.544,1.294 C 1.32,1.425 1.095,1.505 0.93,1.505 0.774,1.505 0.694,1.438 0.694,1.349 V 1.341 C 0.694,1.214 0.909,1.154 1.154,1.07 1.472,0.964 1.84,0.812 1.84,0.398 V 0.389 C 1.84,-0.114 1.463,-0.343 0.973,-0.343 0.655,-0.343 0.3,-0.237 0,0"
         style="fill:#191515;fill-opacity:1;fill-rule:nonzero;stroke:none"
         id="path33218"
         inkscape:connector-curvature="0" />
    </g>
    <g
       id="g33220"
       transform="matrix(5.5121934,0,0,-5.5121934,102.91553,-173.62904)">
      <path
         d="m 0,0 v 0.015 c 0,0.698 -0.313,1.178 -0.771,1.178 -0.459,0 -0.757,-0.466 -0.757,-1.164 V 0.015 c 0,-0.699 0.313,-1.179 0.771,-1.179 C -0.298,-1.164 0,-0.698 0,0 m -3.216,0 v 0.015 c 0,1.404 0.917,2.655 2.459,2.655 1.543,0 2.445,-1.237 2.445,-2.641 V 0.015 c 0,-1.405 -0.917,-2.656 -2.459,-2.656 -1.542,0 -2.445,1.237 -2.445,2.641"
         style="fill:#191515;fill-opacity:1;fill-rule:nonzero;stroke:none"
         id="path33222"
         inkscape:connector-curvature="0" />
    </g>
    <g
       id="g33224"
       transform="matrix(5.5121934,0,0,-5.5121934,73.139232,-178.16006)">
      <path
         d="M 0,0 V 0.015 C 0,0.349 -0.233,0.626 -0.567,0.626 -0.902,0.626 -1.12,0.357 -1.12,0.022 V 0.007 c 0,-0.327 0.232,-0.574 0.567,-0.574 C -0.218,-0.567 0,-0.313 0,0 m -0.015,-1.186 c -0.363,-0.356 -0.764,-0.473 -1.127,-0.473 -0.866,0 -1.601,0.619 -1.601,1.579 v 0.015 c 0,1.214 0.939,1.913 2.117,1.913 0.793,0 1.274,-0.24 1.659,-0.626 C 1.404,0.851 1.652,0.24 1.652,-0.633 v -0.014 c 0,-1.674 -0.888,-2.816 -2.482,-2.816 -0.778,0 -1.374,0.226 -1.884,0.597 l 0.735,1.098 c 0.335,-0.254 0.691,-0.385 1.07,-0.385 0.705,0 0.858,0.582 0.894,0.967"
         style="fill:#191515;fill-opacity:1;fill-rule:nonzero;stroke:none"
         id="path33226"
         inkscape:connector-curvature="0" />
    </g>
    <g
       id="g33228"
       transform="matrix(5.5121934,0,0,-5.5121934,52.477892,-151.1827)">
      <path
         d="m 0,0 h 0.643 v -0.322 c 0.148,0.191 0.343,0.364 0.668,0.364 0.296,0 0.521,-0.131 0.639,-0.359 0.199,0.232 0.436,0.359 0.745,0.359 0.478,0 0.766,-0.287 0.766,-0.833 V -2.268 H 2.818 v 1.265 c 0,0.305 -0.136,0.461 -0.377,0.461 -0.241,0 -0.389,-0.156 -0.389,-0.461 V -2.268 H 1.409 v 1.265 c 0,0.305 -0.135,0.461 -0.377,0.461 -0.241,0 -0.389,-0.156 -0.389,-0.461 V -2.268 H 0 Z"
         style="fill:#191515;fill-opacity:1;fill-rule:nonzero;stroke:none"
         id="path33230"
         inkscape:connector-curvature="0" />
    </g>
    <g
       id="g33232"
       transform="matrix(5.5121934,0,0,-5.5121934,84.159746,-144.86324)">
      <path
         d="m 0,0 v 0.008 c 0,0.335 -0.241,0.627 -0.596,0.627 -0.368,0 -0.588,-0.284 -0.588,-0.618 V 0.008 c 0,-0.334 0.241,-0.626 0.596,-0.626 C -0.22,-0.618 0,-0.334 0,0 m -1.819,0 v 0.008 c 0,0.652 0.525,1.181 1.231,1.181 0.702,0 1.223,-0.521 1.223,-1.172 V 0.008 c 0,-0.651 -0.525,-1.18 -1.231,-1.18 -0.703,0 -1.223,0.52 -1.223,1.172"
         style="fill:#191515;fill-opacity:1;fill-rule:nonzero;stroke:none"
         id="path33234"
         inkscape:connector-curvature="0" />
    </g>
    <g
       id="g33236"
       transform="matrix(5.5121934,0,0,-5.5121934,88.524328,-151.1827)">
      <path
         d="M 0,0 H 0.681 L 1.189,-1.519 1.701,0 H 2.369 L 1.476,-2.285 H 0.893 Z"
         style="fill:#191515;fill-opacity:1;fill-rule:nonzero;stroke:none"
         id="path33238"
         inkscape:connector-curvature="0" />
    </g>
    <path
       d="m 103.6481,-151.18063 h 3.54421 v 12.50165 h -3.54421 z m -0.0992,-4.52565 h 3.73189 v 3.14609 h -3.73189 z"
       style="fill:#191515;fill-opacity:1;fill-rule:nonzero;stroke:none;stroke-width:5.51219273"
       id="path33240"
       inkscape:connector-curvature="0" />
    <g
       id="g33242"
       transform="matrix(5.5121934,0,0,-5.5121934,118.70301,-145.91208)">
      <path
         d="m 0,0 c -0.038,0.288 -0.207,0.482 -0.478,0.482 -0.267,0 -0.44,-0.19 -0.491,-0.482 z m -1.599,-0.19 v 0.008 c 0,0.647 0.461,1.181 1.121,1.181 0.757,0 1.104,-0.589 1.104,-1.232 0,-0.05 -0.004,-0.11 -0.008,-0.169 H -0.96 c 0.063,-0.292 0.266,-0.444 0.554,-0.444 0.215,0 0.372,0.067 0.55,0.233 L 0.512,-0.939 C 0.3,-1.202 -0.004,-1.362 -0.415,-1.362 c -0.681,0 -1.184,0.478 -1.184,1.172"
         style="fill:#191515;fill-opacity:1;fill-rule:nonzero;stroke:none"
         id="path33244"
         inkscape:connector-curvature="0" />
    </g>
    <g
       id="g33246"
       transform="matrix(5.5121934,0,0,-5.5121934,123.74336,-140.33883)">
      <path
         d="M 0,0 0.275,0.423 C 0.521,0.245 0.779,0.152 0.99,0.152 c 0.186,0 0.271,0.068 0.271,0.17 V 0.33 c 0,0.14 -0.22,0.186 -0.47,0.262 C 0.474,0.685 0.114,0.833 0.114,1.273 v 0.009 c 0,0.461 0.373,0.719 0.829,0.719 0.289,0 0.601,-0.097 0.846,-0.262 L 1.544,1.295 C 1.32,1.426 1.096,1.506 0.931,1.506 0.774,1.506 0.694,1.438 0.694,1.35 V 1.341 C 0.694,1.214 0.909,1.155 1.155,1.07 1.472,0.965 1.84,0.812 1.84,0.398 V 0.389 C 1.84,-0.114 1.464,-0.343 0.973,-0.343 0.656,-0.343 0.301,-0.237 0,0"
         style="fill:#191515;fill-opacity:1;fill-rule:nonzero;stroke:none"
         id="path33248"
         inkscape:connector-curvature="0" />
    </g>
  </g>
</svg>
